<svg xmlns="http://www.w3.org/2000/svg" viewBox="0 0 724.88 720.49"><defs><style>.cls-1{fill:none;}.cls-2,.cls-4{fill:#fff;}.cls-3{fill-rule:evenodd;}.cls-4{font-size:7.92px;font-family:ArialMT, Arial;}.cls-5{fill:#606060;}.cls-6{font-size:79.18px;font-family:FranklinGothic-DemiCond, Franklin Gothic Demi Cond;}.cls-7{font-size:95.02px;}.cls-8{font-size:21.12px;font-family:SourceCodePro-Black, Source Code Pro;}</style></defs><title>inpihack-logoAtivo 2</title><g id="Camada_2" data-name="Camada 2"><g id="Camada_1-2" data-name="Camada 1"><rect class="cls-1" x="2.2" width="720.49" height="720.49"/><path class="cls-2" d="M540.88,405.15l-.38,1.53c.34-.43.7-.85,1-1.29Z"/><path class="cls-2" d="M552.84,359.24c-.08-.35-.19-.68-.28-1l-.29,1.18Z"/><polygon class="cls-3" points="29.66 304.23 62.5 173.21 102.58 173.21 69.75 304.23 29.66 304.23"/><polygon class="cls-3" points="71.38 297.9 31.25 297.9 0 422.59 40.09 422.59 71.38 297.9"/><text class="cls-4" transform="translate(39.05 288.48)">#FF6600</text><text class="cls-4" transform="translate(42.22 275.81)">#FF6600</text><text class="cls-4" transform="translate(45.4 263.14)">#FF6600</text><text class="cls-4" transform="translate(48.58 250.47)">#FF6600</text><text class="cls-4" transform="translate(51.75 237.8)">#FF6600</text><text class="cls-4" transform="translate(54.93 225.13)">#FF6600</text><text class="cls-4" transform="translate(58.11 212.46)">#FF6600</text><text class="cls-4" transform="translate(61.29 199.79)">#FF6600</text><text class="cls-4" transform="translate(64.46 187.12)">#FF6600</text><path class="cls-3" d="M293.32,272.79h6l-.06-.23h10.16l-7.94,31.67h40.08l7.94-31.67h10.16l-9.73-93.74-56.61,94Zm4.62-2.76,50.25-83.42L356.85,270h-9.33l-7.93,31.66H304.73L312.66,270Z"/><polygon class="cls-3" points="293.32 272.79 299.32 272.79 299.26 272.56 309.42 272.56 301.48 304.23 341.56 304.23 349.5 272.56 359.66 272.56 349.93 178.82 293.32 272.79"/><polygon class="cls-3" points="343.15 297.9 303.07 297.9 271.82 422.59 311.9 422.59 343.15 297.9"/><text class="cls-4" transform="translate(309.28 288.48)">#66FFCC</text><text class="cls-4" transform="translate(312.46 275.81)">#66FFCC</text><text class="cls-4" transform="translate(315.63 263.14)">#66FFCC</text><polygon class="cls-3" points="98.27 547.27 85.49 422.59 125.26 422.59 138.08 547.27 98.27 547.27"/><polygon class="cls-3" points="141.17 447.93 135.18 447.93 135.23 447.7 74.83 447.7 98.33 353.95 141.17 447.93"/><polygon class="cls-3" points="81.13 422.59 129.62 422.59 98.33 353.95 81.13 422.59"/><polygon class="cls-3" points="116.62 297.9 103.78 173.21 143.65 173.21 156.39 297.9 116.62 297.9"/><polygon class="cls-3" points="143.58 366.88 100.58 272.56 167.22 272.56 143.58 366.88"/><polygon class="cls-3" points="160.87 297.9 112.14 297.9 143.58 366.88 160.87 297.9"/><text class="cls-4" transform="translate(91.64 438.27)">#CC2255</text><text class="cls-4" transform="translate(92.86 450.96)">#CC2255</text><text class="cls-4" transform="translate(94.09 463.65)">#CC2255</text><text class="cls-4" transform="translate(95.31 476.34)">#CC2255</text><text class="cls-4" transform="translate(96.54 489.02)">#CC2255</text><text class="cls-4" transform="translate(97.76 501.71)">#CC2255</text><text class="cls-4" transform="translate(98.99 514.4)">#CC2255</text><text class="cls-4" transform="translate(100.21 527.08)">#CC2255</text><text class="cls-4" transform="translate(101.65 539.77)">#CC2255</text><polygon class="cls-3" points="175.71 547.27 135.94 547.27 169.13 416.23 208.9 416.23 175.71 547.27"/><path class="cls-3" d="M198.44,297.9h57c24.42,0,39.4,14,39.76,31.4h0a53.23,53.23,0,0,1-5.9,23.54l-5.89,23.47h0l5.88-23.46a35.74,35.74,0,0,1-10.77,12.84q-14.29,10.62-38.19,10.62H179l6.26-25.26h49.37c7.62,0,13.27-1.27,17-3.86a16.79,16.79,0,0,0,7.06-9.9c1-3.91.46-7.25-1.55-10s-6.67-4.1-14.06-4.1H192.17Z"/><polygon class="cls-3" points="198.44 297.9 238.21 297.9 206.96 422.59 167.56 422.59 198.44 297.9"/><polygon class="cls-3" points="224.89 351.06 218.56 376.31 179.02 376.31 182.59 361.9 185.28 351.06 224.89 351.06"/><polygon class="cls-3" points="198.44 297.9 238.21 297.9 231.86 323.24 192.17 323.24 198.44 297.9"/><text class="cls-4" transform="translate(118.91 288.48)">#9933CC</text><text class="cls-4" transform="translate(117.61 275.81)">#9933CC</text><text class="cls-4" transform="translate(116.31 263.14)">#9933CC</text><text class="cls-4" transform="translate(115.01 250.47)">#9933CC</text><text class="cls-4" transform="translate(113.71 237.8)">#9933CC</text><text class="cls-4" transform="translate(112.41 225.13)">#9933CC</text><text class="cls-4" transform="translate(111.11 212.46)">#9933CC</text><text class="cls-4" transform="translate(109.81 199.79)">#9933CC</text><text class="cls-4" transform="translate(108.51 187.12)">#9933CC</text><text class="cls-4" transform="translate(168.69 438.5)">#6666BB</text><text class="cls-4" transform="translate(165.5 451.17)">#6666BB</text><text class="cls-4" transform="translate(162.31 463.84)">#6666BB</text><text class="cls-4" transform="translate(159.12 476.51)">#6666BB</text><text class="cls-4" transform="translate(155.94 489.18)">#6666BB</text><text class="cls-4" transform="translate(152.75 501.85)">#6666BB</text><text class="cls-4" transform="translate(149.56 514.52)">#6666BB</text><text class="cls-4" transform="translate(146.38 527.19)">#6666BB</text><text class="cls-4" transform="translate(143.19 539.86)">#6666BB</text><path class="cls-5" d="M456.09,340.46h67.1c-.28-.52-.58-1-.88-1.52h-66.9Z"/><path class="cls-5" d="M507.22,326.48a39.35,39.35,0,0,0-4-1.22H479.36q-2.87.62-5.68,1.52H508Z"/><path class="cls-5" d="M491.93,323.93a59.59,59.59,0,0,0-8.26.57h15.84A48.76,48.76,0,0,0,491.93,323.93Z"/><path class="cls-5" d="M509.75,327.54H471.47c-1.29.47-2.58,1-3.86,1.52h44.95A30.27,30.27,0,0,0,509.75,327.54Z"/><path class="cls-5" d="M457.12,342.74h67.21c-.24-.52-.49-1-.74-1.52H456.43Z"/><path class="cls-5" d="M513.73,329.82H465.9c-1,.48-2.1,1-3.14,1.52h53C515.1,330.8,514.43,330.3,513.73,329.82Z"/><path class="cls-5" d="M459.17,347.3h66.94c-.17-.51-.34-1-.53-1.52H458.49Z"/><path class="cls-5" d="M458.15,345h67.14c-.2-.51-.41-1-.62-1.52H457.46Z"/><path class="cls-5" d="M477.69,391.39H451.76c0,.5,0,1-.05,1.52h26.18A8,8,0,0,1,477.69,391.39Z"/><path class="cls-5" d="M521.84,338.18c-.34-.52-.69-1-1.05-1.52H454.38l.68,1.52Z"/><path class="cls-5" d="M480.07,384.55H452.76c-.12.5-.24,1-.34,1.52h26.49A8,8,0,0,1,480.07,384.55Z"/><path class="cls-5" d="M482.43,382.67l.69-.4H453.44c-.17.5-.33,1-.47,1.52h27.91A15.12,15.12,0,0,1,482.43,382.67Z"/><path class="cls-5" d="M478.52,386.83H452.27c-.08.5-.16,1-.23,1.52h26A10.09,10.09,0,0,1,478.52,386.83Z"/><path class="cls-5" d="M477.84,389.11H452c-.06.5-.1,1-.14,1.52h25.87A10.87,10.87,0,0,1,477.84,389.11Z"/><path class="cls-5" d="M516.64,332.1H461.31c-.9.49-1.8,1-2.7,1.52h59.61C517.71,333.09,517.19,332.59,516.64,332.1Z"/><path class="cls-5" d="M489.59,380H454.33c-.22.5-.43,1-.62,1.52h31A29.39,29.39,0,0,1,489.59,380Z"/><path class="cls-5" d="M518.93,334.38H457.34c-.8.49-1.6,1-2.4,1.52h65.27C519.8,335.38,519.37,334.87,518.93,334.38Z"/><path class="cls-5" d="M573,357.19h-30.5c-.14.5-.28,1-.41,1.52H572C572.28,358.18,572.64,357.67,573,357.19Z"/><path class="cls-5" d="M460.2,349.58H485c.52,0,1,0,1.54,0s1.21,0,1.79,0h38.47c-.14-.49-.28-1-.43-1.45l0-.07H459.52Z"/><path class="cls-5" d="M568.94,366.31H540.75c0,.5-.1,1-.14,1.52h28C568.74,367.31,568.84,366.81,568.94,366.31Z"/><path class="cls-5" d="M568.34,370.87H540.43l0,1.52h27.88C568.29,371.87,568.31,371.37,568.34,370.87Z"/><path class="cls-5" d="M468.54,354.91H462.6l.68,1.52h2.34C466.62,355.89,467.59,355.38,468.54,354.91Z"/><path class="cls-5" d="M470.17,365.55H529c0-.51,0-1-.05-1.52H474.18C472.77,364.5,471.43,365,470.17,365.55Z"/><path class="cls-5" d="M568.56,368.59h-28c0,.5-.06,1-.08,1.52h27.92C568.44,369.59,568.49,369.09,568.56,368.59Z"/><path class="cls-5" d="M571.49,359.47H541.92c-.12.5-.24,1-.34,1.52H570.7C570.94,360.47,571.21,360,571.49,359.47Z"/><path class="cls-5" d="M570.36,361.75H541.43c-.1.5-.19,1-.27,1.52h28.62C570,362.75,570.15,362.24,570.36,361.75Z"/><path class="cls-5" d="M569.53,364H541c-.07.5-.14,1-.2,1.52h28.27C569.24,365,569.38,364.52,569.53,364Z"/><path class="cls-5" d="M476.18,351.52a33.76,33.76,0,0,1,3.8-1.18H460.54l.69,1.53h14C475.57,351.74,475.88,351.63,476.18,351.52Z"/><path class="cls-5" d="M573.81,356.22c.41-.46.83-.9,1.27-1.31H543.24c-.18.5-.34,1-.5,1.52h30.89Z"/><path class="cls-5" d="M501.64,358.71h26.88c0-.52-.11-1-.18-1.52h-27.1A11.65,11.65,0,0,1,501.64,358.71Z"/><path class="cls-5" d="M499.64,354.15h28.21c-.09-.52-.19-1-.3-1.52H498.13A8.69,8.69,0,0,1,499.64,354.15Z"/><path class="cls-5" d="M487,361h41.77c0-.52-.08-1-.13-1.52H499.89Q492.86,360,487,361Z"/><polygon class="cls-5" points="464.22 357.19 463.63 357.19 463.74 357.45 464.22 357.19"/><path class="cls-5" d="M473.42,352.63H461.57l.69,1.52h7.82C471.24,353.59,472.35,353.08,473.42,352.63Z"/><path class="cls-5" d="M497,351.87h30.35c-.12-.52-.24-1-.37-1.53H493.38A14.57,14.57,0,0,1,497,351.87Z"/><path class="cls-5" d="M478.63,362.72c-.68.17-1.35.36-2,.55h52.27l-.09-1.52H482.85C481.38,362.05,480,362.37,478.63,362.72Z"/><path class="cls-5" d="M501,356.43h27.27c-.07-.52-.15-1-.24-1.52H500.17A10.38,10.38,0,0,1,501,356.43Z"/><polygon class="cls-5" points="364.69 411.16 391.97 411.16 391.97 409.64 364.7 409.64 364.69 411.16"/><polygon class="cls-5" points="364.7 406.6 391.99 406.6 392 405.08 364.71 405.08 364.7 406.6"/><polygon class="cls-5" points="364.7 408.88 391.98 408.88 391.99 407.36 364.7 407.36 364.7 408.88"/><polygon class="cls-5" points="364.68 415.72 391.94 415.72 391.95 414.2 364.69 414.2 364.68 415.72"/><polygon class="cls-5" points="364.69 413.44 391.95 413.44 391.96 411.92 364.69 411.92 364.69 413.44"/><rect class="cls-5" x="364.83" y="341.22" width="27.33" height="1.52"/><polygon class="cls-5" points="364.68 418 391.93 418 391.94 416.48 364.68 416.48 364.68 418"/><polygon class="cls-5" points="364.68 420.28 391.92 420.28 391.93 418.76 364.68 418.76 364.68 420.28"/><polygon class="cls-5" points="364.67 422.59 391.91 422.59 391.92 421.04 364.67 421.04 364.67 422.59"/><polygon class="cls-5" points="364.74 386.07 392.09 386.07 392.1 384.55 364.75 384.55 364.74 386.07"/><polygon class="cls-5" points="364.73 395.19 392.05 395.19 392.05 393.67 364.73 393.67 364.73 395.19"/><polygon class="cls-5" points="364.71 404.32 392 404.32 392.01 402.8 364.71 402.8 364.71 404.32"/><polygon class="cls-5" points="364.74 388.35 392.08 388.35 392.09 386.83 364.74 386.83 364.74 388.35"/><polygon class="cls-5" points="364.74 390.63 392.07 390.63 392.08 389.11 364.74 389.11 364.74 390.63"/><polygon class="cls-5" points="364.71 402.04 392.01 402.04 392.02 400.52 364.71 400.52 364.71 402.04"/><polygon class="cls-5" points="364.72 397.48 392.03 397.48 392.04 395.95 364.72 395.95 364.72 397.48"/><polygon class="cls-5" points="364.72 399.75 392.02 399.75 392.03 398.24 364.72 398.24 364.72 399.75"/><rect class="cls-5" x="364.92" y="300.17" width="27.24" height="1.52"/><rect class="cls-5" x="364.89" y="311.58" width="27.27" height="1.52"/><rect class="cls-5" x="364.88" y="316.14" width="27.28" height="1.52"/><rect class="cls-5" x="364.9" y="309.3" width="27.26" height="1.52"/><rect class="cls-5" x="364.89" y="313.86" width="27.27" height="1.52"/><rect class="cls-5" x="364.9" y="307.02" width="27.26" height="1.52"/><rect class="cls-5" x="364.92" y="297.95" width="27.24" height="1.46"/><rect class="cls-5" x="364.91" y="302.45" width="27.25" height="1.52"/><rect class="cls-5" x="364.91" y="304.73" width="27.25" height="1.52"/><rect class="cls-5" x="364.85" y="332.1" width="27.31" height="1.52"/><rect class="cls-5" x="364.85" y="334.38" width="27.31" height="1.52"/><rect class="cls-5" x="364.84" y="338.94" width="27.32" height="1.52"/><rect class="cls-5" x="364.88" y="318.42" width="27.28" height="1.52"/><rect class="cls-5" x="364.84" y="336.66" width="27.32" height="1.52"/><rect class="cls-5" x="364.86" y="327.54" width="27.3" height="1.52"/><rect class="cls-5" x="364.88" y="320.7" width="27.29" height="1.52"/><rect class="cls-5" x="364.87" y="322.98" width="27.29" height="1.52"/><rect class="cls-5" x="364.87" y="325.26" width="27.3" height="1.52"/><polygon class="cls-5" points="364.73 392.91 392.06 392.91 392.06 391.39 364.73 391.39 364.73 392.91"/><rect class="cls-5" x="628.09" y="318.42" width="27.28" height="1.52"/><rect class="cls-5" x="628.09" y="316.14" width="27.28" height="1.52"/><rect class="cls-5" x="628.09" y="313.86" width="27.27" height="1.52"/><rect class="cls-5" x="628.08" y="320.7" width="27.29" height="1.52"/><rect class="cls-5" x="628.08" y="322.98" width="27.29" height="1.52"/><rect class="cls-5" x="628.11" y="304.73" width="27.25" height="1.52"/><rect class="cls-5" x="628.11" y="307.02" width="27.26" height="1.52"/><rect class="cls-5" x="628.1" y="311.58" width="27.27" height="1.52"/><rect class="cls-5" x="628.1" y="309.3" width="27.26" height="1.52"/><rect class="cls-5" x="628.03" y="343.5" width="27.33" height="1.52"/><rect class="cls-5" x="628.04" y="338.94" width="27.32" height="1.52"/><rect class="cls-5" x="628.05" y="336.66" width="27.32" height="1.52"/><rect class="cls-5" x="628.05" y="334.38" width="27.31" height="1.52"/><rect class="cls-5" x="628.04" y="341.22" width="27.33" height="1.52"/><rect class="cls-5" x="628.06" y="332.1" width="27.31" height="1.52"/><rect class="cls-5" x="628.12" y="302.45" width="27.25" height="1.52"/><rect class="cls-5" x="628.07" y="327.54" width="27.3" height="1.52"/><rect class="cls-5" x="628.06" y="329.82" width="27.31" height="1.52"/><path class="cls-5" d="M578,352.63H544.09c-.21.5-.4,1-.59,1.52h32.43A17,17,0,0,1,578,352.63Z"/><polygon class="cls-5" points="701.58 336.66 672.55 336.66 671.46 338.18 700.42 338.18 701.58 336.66"/><polygon class="cls-5" points="705.04 332.1 675.83 332.1 674.74 333.62 703.89 333.62 705.04 332.1"/><polygon class="cls-5" points="703.31 334.38 674.19 334.38 673.1 335.9 702.16 335.9 703.31 334.38"/><polygon class="cls-5" points="699.85 338.94 670.92 338.94 669.82 340.46 698.69 340.46 699.85 338.94"/><polygon class="cls-5" points="698.12 341.22 669.28 341.22 668.19 342.74 696.96 342.74 698.12 341.22"/><polygon class="cls-5" points="709.53 326.19 680.07 326.19 679.65 326.78 709.09 326.78 709.53 326.19"/><polygon class="cls-5" points="706.77 329.82 677.47 329.82 676.38 331.34 705.62 331.34 706.77 329.82"/><polygon class="cls-5" points="708.51 327.54 679.11 327.54 678.01 329.06 707.35 329.06 708.51 327.54"/><rect class="cls-5" x="628.12" y="300.17" width="27.25" height="1.52"/><polygon class="cls-5" points="685.99 357.19 657.81 357.19 656.72 358.71 684.84 358.71 685.99 357.19"/><polygon class="cls-5" points="689.45 352.63 661.09 352.63 660 354.15 688.3 354.15 689.45 352.63"/><polygon class="cls-5" points="687.72 354.91 659.45 354.91 658.36 356.43 686.57 356.43 687.72 354.91"/><rect class="cls-5" x="628.13" y="297.9" width="27.24" height="1.51"/><polygon class="cls-5" points="692.92 348.06 664.36 348.06 663.27 349.58 691.76 349.58 692.92 348.06"/><polygon class="cls-5" points="694.65 345.78 666 345.78 664.91 347.3 693.5 347.3 694.65 345.78"/><polygon class="cls-5" points="696.38 343.5 667.64 343.5 666.55 345.02 695.23 345.02 696.38 343.5"/><polygon class="cls-5" points="691.19 350.35 662.73 350.35 661.63 351.87 690.03 351.87 691.19 350.35"/><rect class="cls-5" x="628.07" y="325.26" width="27.3" height="1.52"/><path class="cls-5" d="M613.72,341.22H550.53c-.38.5-.75,1-1.12,1.52h63.37Z"/><path class="cls-5" d="M615.13,338.94H552.41c-.44.5-.87,1-1.28,1.52h63.06Z"/><path class="cls-5" d="M612.31,343.5H548.89c-.33.5-.66,1-1,1.52h63.45Z"/><path class="cls-5" d="M616.54,336.66h-62l-.17.17c-.45.44-.89.89-1.31,1.35h62.5Z"/><path class="cls-5" d="M610.89,345.78H547.45c-.29.5-.58,1-.86,1.52H610Z"/><path class="cls-5" d="M597.86,325.26H575.47a47.42,47.42,0,0,0-5.06,1.52h32.18A40.1,40.1,0,0,0,597.86,325.26Z"/><path class="cls-5" d="M608.75,329.82h-45c-.85.48-1.69,1-2.51,1.52h49.85C610.33,330.81,609.55,330.3,608.75,329.82Z"/><path class="cls-5" d="M612.11,332.1h-52c-.69.49-1.37,1-2,1.52H614C613.36,333.1,612.75,332.59,612.11,332.1Z"/><path class="cls-5" d="M614.79,334.38H557.11c-.59.49-1.16,1-1.73,1.52h60.93C615.82,335.38,615.32,334.87,614.79,334.38Z"/><path class="cls-5" d="M604.38,327.54H568.45c-1.13.47-2.23,1-3.3,1.52h42.28C606.45,328.52,605.44,328,604.38,327.54Z"/><path class="cls-5" d="M609.48,348.06H546.19c-.26.5-.51,1-.76,1.52h63.11Z"/><path class="cls-5" d="M609.54,393.67H599c-.3.17-.61.33-.92.49a20.41,20.41,0,0,1-2.35,1h14.66Z"/><path class="cls-5" d="M596.06,351.33c.43.16.88.34,1.32.54h9.75l.94-1.53H592.59A25.51,25.51,0,0,1,596.06,351.33Z"/><path class="cls-5" d="M607.13,389.11h-.8c-.72.52-1.47,1-2.22,1.52h3.82Z"/><path class="cls-5" d="M583.91,350.34H545.07c-.23.5-.45,1-.67,1.53h35A18,18,0,0,1,583.91,350.34Z"/><rect class="cls-5" x="628.03" y="345.78" width="27.34" height="1.52"/><path class="cls-5" d="M601.44,354.15h4.28l.94-1.52h-7.74A27.66,27.66,0,0,1,601.44,354.15Z"/><path class="cls-5" d="M608.33,391.39h-5.41c-.84.53-1.7,1-2.57,1.52h8.79Z"/><path class="cls-5" d="M602.53,354.91c.61.43,1.22.9,1.84,1.41l.88-1.41Z"/><rect class="cls-5" x="628.01" y="357.19" width="27.36" height="1.52"/><polygon class="cls-5" points="680.07 364.98 680.79 364.03 627.99 364.03 627.99 365.55 680.4 365.55 680.07 364.98"/><polygon class="cls-5" points="684.26 359.47 656.17 359.47 656 359.71 655.37 359.71 655.37 359.47 628 359.47 628 360.99 683.1 360.99 684.26 359.47"/><polygon class="cls-5" points="682.53 361.75 628 361.75 628 363.27 681.37 363.27 682.53 361.75"/><rect class="cls-5" x="628.01" y="354.91" width="27.36" height="1.52"/><rect class="cls-5" x="628.02" y="352.63" width="27.35" height="1.52"/><path class="cls-5" d="M586.79,323.93a48.44,48.44,0,0,0-7.46.57h14.82A46.22,46.22,0,0,0,586.79,323.93Z"/><rect class="cls-5" x="628.02" y="350.34" width="27.35" height="1.52"/><rect class="cls-5" x="628.03" y="348.06" width="27.34" height="1.52"/><polygon class="cls-5" points="685.99 375.43 627.97 375.43 627.97 376.95 686.85 376.95 685.99 375.43"/><polygon class="cls-5" points="688.58 379.99 627.96 379.99 627.96 381.51 689.44 381.51 688.58 379.99"/><polygon class="cls-5" points="687.28 377.71 627.97 377.71 627.96 379.23 688.14 379.23 687.28 377.71"/><polygon class="cls-5" points="689.87 382.27 627.96 382.27 627.95 383.79 690.73 383.79 689.87 382.27"/><polygon class="cls-5" points="682.12 368.59 627.99 368.59 627.98 370.11 682.98 370.11 682.12 368.59"/><polygon class="cls-5" points="680.83 366.31 627.99 366.31 627.99 367.83 681.69 367.83 680.83 366.31"/><polygon class="cls-5" points="683.41 370.87 627.98 370.87 627.98 372.39 684.27 372.39 683.41 370.87"/><polygon class="cls-5" points="684.7 373.15 627.98 373.15 627.97 374.67 685.56 374.67 684.7 373.15"/><rect class="cls-5" x="364.86" y="329.82" width="27.31" height="1.52"/><path class="cls-5" d="M573.65,390.3c-.33-.38-.64-.78-.94-1.19H542.24c.13.51.26,1,.41,1.52h31.29Z"/><path class="cls-5" d="M571.28,386.83H541.71c.11.51.22,1,.34,1.52h30.14A16.5,16.5,0,0,1,571.28,386.83Z"/><path class="cls-5" d="M570.21,384.55H541.28c.09.51.18,1,.28,1.52h29.32C570.64,385.58,570.42,385.07,570.21,384.55Z"/><path class="cls-5" d="M574.65,391.39H542.87c.16.52.32,1,.49,1.52h33A18.51,18.51,0,0,1,574.65,391.39Z"/><path class="cls-5" d="M569.43,382.27H541c.06.51.13,1,.21,1.52h28.76C569.74,383.3,569.58,382.79,569.43,382.27Z"/><path class="cls-5" d="M568.32,375.43h-27.9l.06,1.52h28C568.39,376.45,568.35,376,568.32,375.43Z"/><path class="cls-5" d="M454,406.6h74.77v-1.52H453.49C453.66,405.59,453.85,406.1,454,406.6Z"/><path class="cls-5" d="M568.88,380H540.7c0,.51.1,1,.15,1.52h28.37C569.09,381,569,380.51,568.88,380Z"/><path class="cls-5" d="M577.38,393.67H543.62l.18.49.39,1h36A16.35,16.35,0,0,1,577.38,393.67Z"/><path class="cls-5" d="M614.37,402.8H547.92c.32.51.64,1,1,1.52h66.29Z"/><path class="cls-5" d="M567.24,419.29c.88.36,1.78.69,2.69,1h28.88c.87-.27,1.75-.57,2.63-.89.55-.2,1.08-.41,1.62-.63H566C566.39,418.94,566.81,419.12,567.24,419.29Z"/><path class="cls-5" d="M560.35,415.72h48.71c.79-.48,1.57-1,2.34-1.52H558.17C558.88,414.73,559.61,415.24,560.35,415.72Z"/><path class="cls-5" d="M615.58,405.08H549.41c.36.51.73,1,1.11,1.52h65.87Z"/><path class="cls-5" d="M610.75,396H593.18a24.42,24.42,0,0,1-5.75.66,19,19,0,0,1-5.08-.66H544.5c.21.52.42,1,.65,1.52h66.41Z"/><path class="cls-5" d="M564.36,418h40.43c1-.47,2-1,3-1.52H561.57C562.47,417,563.4,417.53,564.36,418Z"/><path class="cls-5" d="M612,398.24H545.49c.24.51.49,1,.74,1.52h66.53Z"/><path class="cls-5" d="M613.17,400.52H546.63c.27.51.55,1,.84,1.52H614Z"/><path class="cls-5" d="M568.27,373.26v-.11H540.39v.11c0,.47,0,.94,0,1.41h27.88C568.27,374.21,568.27,373.74,568.27,373.26Z"/><path class="cls-5" d="M584.74,422.59A45.13,45.13,0,0,0,596.16,421H572.49A47.76,47.76,0,0,0,584.74,422.59Z"/><path class="cls-5" d="M495.43,395.19h33.43v-1.52H497.81C497,394.2,496.25,394.71,495.43,395.19Z"/><path class="cls-5" d="M498.88,392.91h30v-1.52H500.81C500.18,391.92,499.54,392.43,498.88,392.91Z"/><path class="cls-5" d="M489.41,397.47h39.44V396H494.07A16.13,16.13,0,0,1,489.41,397.47Z"/><path class="cls-5" d="M468.49,366.31c-1,.48-2,1-2.87,1.52H529c0-.51,0-1,0-1.52Z"/><rect class="cls-5" x="501.75" y="386.83" width="27.15" height="1.52"/><path class="cls-5" d="M453.25,404.32h75.57V402.8h-76C453,403.31,453.1,403.81,453.25,404.32Z"/><path class="cls-5" d="M452.2,399.76h76.64v-1.52H452C452,398.75,452.11,399.25,452.2,399.76Z"/><path class="cls-5" d="M452.64,402h76.19v-1.52H452.33C452.42,401,452.53,401.53,452.64,402Z"/><polygon class="cls-5" points="501.75 390.58 501.69 390.63 528.89 390.63 528.89 389.11 501.75 389.11 501.75 390.58"/><path class="cls-5" d="M455.94,377h73v-1.52H457C456.61,375.93,456.27,376.43,455.94,377Z"/><path class="cls-5" d="M457.56,374.67H529v-1.52H458.88C458.41,373.64,458,374.15,457.56,374.67Z"/><path class="cls-5" d="M459.62,372.39H529v-1.52H461.29C460.71,371.36,460.15,371.87,459.62,372.39Z"/><path class="cls-5" d="M463.19,369.4c-.33.23-.64.47-.95.71H529v-1.52h-64.6Q463.78,369,463.19,369.4Z"/><path class="cls-5" d="M454.68,379.23h39.2c2.3-.31,4.93-.55,7.87-.7v.7h27.19v-1.52H455.49C455.2,378.21,454.93,378.71,454.68,379.23Z"/><rect class="cls-5" x="501.75" y="384.55" width="27.16" height="1.52"/><rect class="cls-5" x="501.75" y="382.27" width="27.17" height="1.52"/><rect class="cls-5" x="501.75" y="379.99" width="27.18" height="1.52"/><path class="cls-5" d="M568.52,377.71h-28c0,.51.07,1,.11,1.52h28.11C568.65,378.73,568.58,378.23,568.52,377.71Z"/><polygon class="cls-5" points="697.62 395.95 669.96 395.95 670.73 397.48 698.48 397.48 697.62 395.95"/><polygon class="cls-5" points="698.91 398.24 671.12 398.24 671.89 399.75 699.77 399.75 698.91 398.24"/><polygon class="cls-5" points="701.49 402.8 673.44 402.8 674.21 404.32 702.35 404.32 701.49 402.8"/><polygon class="cls-5" points="696.32 393.67 668.8 393.67 669.58 395.19 697.18 395.19 696.32 393.67"/><polygon class="cls-5" points="700.2 400.52 672.28 400.52 673.05 402.04 701.06 402.04 700.2 400.52"/><polygon class="cls-5" points="691.16 384.55 627.95 384.55 627.95 386.07 663.97 386.07 664.55 385.31 664.94 386.07 692.02 386.07 691.16 384.55"/><polygon class="cls-5" points="627.95 388.35 662.23 388.35 663.39 386.83 627.95 386.83 627.95 388.35"/><polygon class="cls-5" points="692.45 386.83 665.33 386.83 666.1 388.35 693.31 388.35 692.45 386.83"/><polygon class="cls-5" points="693.74 389.11 666.49 389.11 667.26 390.63 694.6 390.63 693.74 389.11"/><polygon class="cls-5" points="695.03 391.39 667.64 391.39 668.42 392.91 695.89 392.91 695.03 391.39"/><polygon class="cls-5" points="709.24 416.48 680.39 416.48 681.16 418 710.1 418 709.24 416.48"/><polygon class="cls-5" points="710.53 418.76 681.55 418.76 682.32 420.28 711.39 420.28 710.53 418.76"/><polygon class="cls-5" points="711.82 421.04 682.71 421.04 683.49 422.59 712.7 422.59 711.82 421.04"/><polygon class="cls-5" points="707.95 414.2 679.23 414.2 680 415.72 708.81 415.72 707.95 414.2"/><polygon class="cls-5" points="704.07 407.36 675.75 407.36 676.53 408.88 704.93 408.88 704.07 407.36"/><polygon class="cls-5" points="702.78 405.08 674.6 405.08 675.37 406.6 703.64 406.6 702.78 405.08"/><polygon class="cls-5" points="705.36 409.64 676.91 409.64 677.69 411.16 706.22 411.16 705.36 409.64"/><polygon class="cls-5" points="706.65 411.92 678.07 411.92 678.85 413.44 707.52 413.44 706.65 411.92"/><polygon class="cls-5" points="627.9 408.88 655.25 408.88 655.27 407.36 627.91 407.36 627.9 408.88"/><polygon class="cls-5" points="627.88 420.28 655.14 420.28 655.15 418.76 627.88 418.76 627.88 420.28"/><polygon class="cls-5" points="627.89 415.72 655.18 415.72 655.2 414.2 627.89 414.2 627.89 415.72"/><polygon class="cls-5" points="627.88 418 655.16 418 655.17 416.48 627.89 416.48 627.88 418"/><polygon class="cls-5" points="627.89 413.44 655.21 413.44 655.22 411.92 627.9 411.92 627.89 413.44"/><polygon class="cls-5" points="627.9 411.16 655.23 411.16 655.24 409.64 627.9 409.64 627.9 411.16"/><polygon class="cls-5" points="627.88 422.59 655.11 422.59 655.13 421.04 627.88 421.04 627.88 422.59"/><path class="cls-5" d="M553.14,409.69c.48.5,1,1,1.46,1.47h60.73c.58-.49,1.14-1,1.71-1.52H553.09Z"/><polygon class="cls-5" points="627.94 390.63 660.49 390.63 661.65 389.11 627.94 389.11 627.94 390.63"/><path class="cls-5" d="M551.11,407.36c.42.52.85,1,1.29,1.52h65.19l-.8-1.52Z"/><polygon class="cls-5" points="627.92 399.75 655.34 399.75 655.36 398.24 627.92 398.24 627.92 399.75"/><polygon class="cls-5" points="627.93 395.19 657.02 395.19 658.18 393.67 627.93 393.67 627.93 395.19"/><polygon class="cls-5" points="627.93 397.48 655.37 397.48 655.37 397.36 656.44 395.95 627.93 395.95 627.93 397.48"/><polygon class="cls-5" points="627.94 392.91 658.76 392.91 659.91 391.39 627.94 391.39 627.94 392.91"/><path class="cls-5" d="M557.2,413.44h55.26c.66-.49,1.31-1,2-1.52h-59C556,412.44,556.59,413,557.2,413.44Z"/><polygon class="cls-5" points="627.91 406.6 655.27 406.6 655.29 405.08 627.91 405.08 627.91 406.6"/><polygon class="cls-5" points="627.91 404.32 655.3 404.32 655.31 402.8 627.91 402.8 627.91 404.32"/><polygon class="cls-5" points="627.92 402.04 655.32 402.04 655.34 400.52 627.92 400.52 627.92 402.04"/><rect class="cls-5" x="414.33" y="375.43" width="27.24" height="1.52"/><polygon class="cls-5" points="364.77 372.39 392.16 372.39 392.16 371.75 414.33 371.75 414.33 372.39 441.57 372.39 441.57 370.87 364.77 370.87 364.77 372.39"/><rect class="cls-5" x="414.33" y="377.71" width="27.24" height="1.52"/><rect class="cls-5" x="414.33" y="379.99" width="27.24" height="1.52"/><rect class="cls-5" x="414.33" y="373.15" width="27.24" height="1.52"/><polygon class="cls-5" points="364.75 383.79 392.1 383.79 392.11 382.27 364.75 382.27 364.75 383.79"/><rect class="cls-5" x="414.33" y="389.11" width="27.24" height="1.52"/><rect class="cls-5" x="414.33" y="386.83" width="27.24" height="1.52"/><rect class="cls-5" x="364.82" y="350.34" width="76.76" height="1.52"/><rect class="cls-5" x="414.33" y="382.27" width="27.24" height="1.52"/><rect class="cls-5" x="364.78" y="368.59" width="76.79" height="1.52"/><rect class="cls-5" x="364.81" y="354.91" width="76.77" height="1.52"/><rect class="cls-5" x="364.8" y="359.47" width="76.78" height="1.52"/><rect class="cls-5" x="364.8" y="357.19" width="76.77" height="1.52"/><rect class="cls-5" x="364.81" y="352.63" width="76.76" height="1.52"/><rect class="cls-5" x="414.33" y="391.39" width="27.24" height="1.52"/><rect class="cls-5" x="364.79" y="361.75" width="76.78" height="1.52"/><rect class="cls-5" x="364.78" y="366.31" width="76.79" height="1.52"/><rect class="cls-5" x="364.79" y="364.03" width="76.79" height="1.52"/><rect class="cls-5" x="414.33" y="384.55" width="27.24" height="1.52"/><rect class="cls-5" x="414.33" y="414.2" width="27.24" height="1.52"/><rect class="cls-5" x="414.33" y="393.67" width="27.24" height="1.52"/><polygon class="cls-5" points="364.77 374.67 392.15 374.67 392.15 373.15 364.77 373.15 364.77 374.67"/><rect class="cls-5" x="414.33" y="416.48" width="27.24" height="1.52"/><rect class="cls-5" x="414.33" y="418.76" width="27.24" height="1.52"/><polygon class="cls-5" points="364.76 376.95 392.14 376.95 392.14 375.43 364.77 375.43 364.76 376.95"/><polygon class="cls-5" points="364.75 381.51 392.11 381.51 392.12 379.99 364.76 379.99 364.75 381.51"/><polygon class="cls-5" points="364.76 379.23 392.13 379.23 392.13 377.71 364.76 377.71 364.76 379.23"/><rect class="cls-5" x="414.33" y="421.04" width="27.24" height="1.55"/><rect class="cls-5" x="414.33" y="400.52" width="27.24" height="1.52"/><rect class="cls-5" x="414.33" y="402.8" width="27.24" height="1.52"/><rect class="cls-5" x="414.33" y="398.24" width="27.24" height="1.52"/><rect class="cls-5" x="414.33" y="395.95" width="27.24" height="1.52"/><rect class="cls-5" x="414.33" y="409.64" width="27.24" height="1.52"/><rect class="cls-5" x="414.33" y="411.92" width="27.24" height="1.52"/><rect class="cls-5" x="414.33" y="405.08" width="27.24" height="1.52"/><rect class="cls-5" x="414.33" y="407.36" width="27.24" height="1.52"/><rect class="cls-5" x="414.33" y="304.73" width="27.24" height="1.52"/><path class="cls-5" d="M479.71,396H451.78c0,.51.07,1,.12,1.52h31.31A7.57,7.57,0,0,1,479.71,396Z"/><rect class="cls-5" x="414.33" y="307.02" width="27.24" height="1.52"/><path class="cls-5" d="M478.12,393.67H451.71c0,.51,0,1,0,1.52H479A5.24,5.24,0,0,1,478.12,393.67Z"/><path class="cls-5" d="M466.44,420.23l.09,0h22.53c.86-.35,1.71-.74,2.56-1.18l.66-.34H463.84A25.28,25.28,0,0,0,466.44,420.23Z"/><rect class="cls-5" x="414.33" y="302.45" width="27.24" height="1.52"/><path class="cls-5" d="M462.73,418h30.95c.87-.49,1.73-1,2.57-1.52H460.84C461.44,417,462.08,417.52,462.73,418Z"/><path class="cls-5" d="M455.05,408.88H528.8v-1.52H454.35C454.57,407.87,454.8,408.38,455.05,408.88Z"/><rect class="cls-5" x="364.82" y="348.06" width="76.75" height="1.52"/><rect class="cls-5" x="414.33" y="297.95" width="27.24" height="1.46"/><path class="cls-5" d="M477.36,422.59A30.54,30.54,0,0,0,487,421H468.29A25.38,25.38,0,0,0,477.36,422.59Z"/><path class="cls-5" d="M460,415.72h37.42c.75-.49,1.49-1,2.21-1.52H458.59C459.05,414.73,459.53,415.23,460,415.72Z"/><polygon class="cls-5" points="505.32 413.44 528.78 413.44 528.79 411.92 505.11 411.92 505.32 413.44"/><path class="cls-5" d="M456.34,411.16h47.22l.73-.62h.63l.08.62h23.79v-1.52H455.45C455.73,410.16,456,410.66,456.34,411.16Z"/><polygon class="cls-5" points="505.94 418 528.76 418 528.77 416.48 505.73 416.48 505.94 418"/><polygon class="cls-5" points="505.63 415.72 528.77 415.72 528.78 414.2 505.42 414.2 505.63 415.72"/><path class="cls-5" d="M458,413.44h42.73c.66-.49,1.31-1,1.95-1.52h-45.8C457.19,412.44,457.57,413,458,413.44Z"/><polygon class="cls-5" points="506.25 420.28 528.75 420.28 528.76 418.76 506.04 418.76 506.25 420.28"/><polygon class="cls-5" points="506.57 422.59 528.74 422.59 528.75 421.04 506.36 421.04 506.57 422.59"/><rect class="cls-5" x="414.33" y="300.17" width="27.24" height="1.52"/><rect class="cls-5" x="414.33" y="334.38" width="27.24" height="1.52"/><rect class="cls-5" x="414.33" y="338.94" width="27.24" height="1.52"/><rect class="cls-5" x="414.33" y="336.66" width="27.24" height="1.52"/><rect class="cls-5" x="414.33" y="332.1" width="27.24" height="1.52"/><rect class="cls-5" x="414.33" y="341.22" width="27.24" height="1.52"/><rect class="cls-5" x="414.33" y="329.82" width="27.24" height="1.52"/><rect class="cls-5" x="364.82" y="345.78" width="76.75" height="1.52"/><polygon class="cls-5" points="414.33 343.51 392.16 343.51 392.16 343.5 364.83 343.5 364.83 345.02 441.57 345.02 441.57 343.5 414.33 343.5 414.33 343.51"/><rect class="cls-5" x="414.33" y="316.14" width="27.24" height="1.52"/><rect class="cls-5" x="414.33" y="309.3" width="27.24" height="1.52"/><rect class="cls-5" x="414.33" y="313.86" width="27.24" height="1.52"/><rect class="cls-5" x="414.33" y="318.42" width="27.24" height="1.52"/><rect class="cls-5" x="414.33" y="311.58" width="27.24" height="1.52"/><rect class="cls-5" x="414.33" y="327.54" width="27.24" height="1.52"/><rect class="cls-5" x="414.33" y="320.7" width="27.24" height="1.52"/><rect class="cls-5" x="414.33" y="325.26" width="27.24" height="1.52"/><rect class="cls-5" x="414.33" y="322.98" width="27.24" height="1.52"/><text class="cls-6" transform="translate(349.38 385.85)">├┘.<tspan class="cls-7" x="124.26" y="0">4</tspan><tspan x="169.29" y="0" xml:space="preserve"> [¯,|◄</tspan></text><text class="cls-8" transform="translate(509.5 443.81)">01010110001111110</text></g></g></svg>